<svg width="16" height="16" viewBox="0 0 16 16" fill="none" xmlns="http://www.w3.org/2000/svg">
<path d="M7.07011 9.33008C6.81461 9.13283 6.50436 9.52533 6.75961 9.72208C7.36086 10.1863 7.69311 10.7881 7.86736 11.4511C7.17761 11.2831 6.23761 11.4653 5.74986 11.8886C5.63636 11.9868 5.60161 12.1883 5.74411 12.2846C6.38486 12.7181 7.31711 12.6693 8.01411 12.3413C8.08986 13.3488 7.92561 14.4186 7.82261 15.3373C7.78736 15.6566 8.28311 15.7241 8.31886 15.4028C8.54511 13.3691 8.94411 10.7768 7.06986 9.33008" fill="#A0ECE6"/>
<path d="M10.0925 8.70129C10.348 8.50404 10.658 8.89654 10.403 9.09329C9.80153 9.55704 9.46953 10.1593 9.29528 10.8223C9.98503 10.6538 10.925 10.8365 11.4128 11.2593C11.5263 11.3575 11.5608 11.5595 11.4185 11.6558C10.7775 12.0888 9.84528 12.04 9.14853 11.712C9.07303 12.7195 9.23728 13.7893 9.34003 14.708C9.37553 15.0278 8.87978 15.0948 8.84403 14.7735C8.61803 12.7403 8.21853 10.1475 10.093 8.70129" fill="#A0ECE6"/>
<path d="M12.2345 8.59627C11.7672 8.01277 11.0085 7.81302 10.3297 8.19252C9.29096 8.77252 8.81196 9.80152 8.59246 10.945C8.25996 9.92402 7.62021 9.14377 6.43346 9.09052C4.47521 9.00252 4.85721 11.718 4.85596 13.0655C4.85546 13.5495 5.23446 13.5938 5.23446 13.11C5.23521 12.2135 5.12421 9.58752 6.56846 9.87277C8.64671 10.2835 8.20796 13.8493 8.07846 15.2825C8.03496 15.7635 8.78496 15.7435 8.82846 15.266C8.83846 15.1562 8.84846 15.0384 8.85846 14.9125C9.02396 14.8858 9.17246 14.7635 9.17246 14.5478C9.16721 13.1948 9.12396 11.847 9.48771 10.5303C9.68471 9.81502 10.1067 9.08552 10.822 8.79727C12.1737 8.25277 11.8675 10.5448 11.6262 11.1235C11.4422 11.565 11.571 11.9083 11.7565 11.462C12.1395 10.5455 12.9205 9.45452 12.2345 8.59727" fill="#47D3A7"/>
<path d="M4.15046 4.50001L3.47571 3.74251C3.47571 3.74251 3.26696 2.53976 4.34646 3.23401L4.65946 4.20151L4.15046 4.49876" fill="#DDE4E9"/>
<path d="M4.67247 4.22102L4.35547 3.25802C4.35547 3.25802 4.64247 2.07177 5.35547 3.13877L5.25672 4.15052L4.67147 4.22102" fill="#C8D2D9"/>
<path d="M4.92586 4.112L5.36186 3.131C5.36186 3.131 6.43186 2.4055 6.23211 3.75L5.43486 4.474L4.92586 4.112ZM4.99686 5.56475L4.94011 6.577C4.94011 6.577 4.23686 7.5745 3.96436 6.32076L4.42711 5.415L4.99686 5.56475ZM5.42711 4.67775L6.40061 4.98425C6.40061 4.98425 7.13436 5.98675 5.81011 5.98125L5.08236 5.2605L5.42711 4.67775Z" fill="#DDE4E9"/>
<path d="M4.43005 5.39295L3.97355 6.2987C3.97355 6.2987 2.9313 6.93345 3.1813 5.6747L3.9668 5.0282L4.43005 5.39295Z" fill="#C8D2D9"/>
<path d="M4.12666 5.28249L3.18116 5.64624C3.18116 5.64624 1.98241 5.41574 3.01341 4.65149L4.02916 4.70124L4.12666 5.28249Z" fill="#DDE4E9"/>
<path d="M4.02762 4.88379L3.04237 4.64654C3.04237 4.64654 2.18737 3.77654 3.46987 3.73254L4.27762 4.34929L4.02762 4.88379ZM5.10062 4.44479L6.09837 3.83454C6.09837 3.83454 7.50662 3.84629 6.49587 4.92879L5.33287 5.08454L5.10062 4.44479Z" fill="#C8D2D9"/>
<path d="M4.64722 5.54871C5.07869 5.54871 5.42847 5.19893 5.42847 4.76746C5.42847 4.33598 5.07869 3.98621 4.64722 3.98621C4.21574 3.98621 3.86597 4.33598 3.86597 4.76746C3.86597 5.19893 4.21574 5.54871 4.64722 5.54871Z" fill="#F8AE1C"/>
<path d="M4.47556 4.92026C4.37111 4.80272 4.30474 4.65627 4.28524 4.50023C4.26573 4.34419 4.294 4.1859 4.36631 4.04626C4.24703 4.09006 4.14023 4.16227 4.05514 4.25664C3.97005 4.35102 3.90926 4.46471 3.87801 4.58788C3.84676 4.71104 3.84601 4.83997 3.87581 4.96349C3.90562 5.08701 3.96509 5.2014 4.04906 5.29676C4.13329 5.39209 4.23952 5.46541 4.35853 5.51033C4.47754 5.55525 4.60572 5.57043 4.73193 5.55453C4.85814 5.53864 4.97855 5.49216 5.08271 5.41914C5.18686 5.34611 5.2716 5.24875 5.32956 5.13551C5.18208 5.18967 5.02169 5.1981 4.86934 5.1597C4.71699 5.1213 4.57976 5.03786 4.47556 4.92026Z" fill="#CA8A2A"/>
<path d="M5.26758 5.31055L5.87933 6.12005C5.87933 6.12005 5.98883 7.3353 4.96933 6.55605L4.73633 5.5658L5.26758 5.31055Z" fill="#C8D2D9"/>
<path d="M10.4789 6.19881L9.80412 5.44381C9.80412 5.44381 9.59512 4.24106 10.6749 4.93531L10.9881 5.90306L10.4789 6.20006" fill="#86CDEC"/>
<path d="M11.0026 5.91851L10.6848 4.95576C10.6848 4.95576 10.9723 3.76926 11.6848 4.83651L11.5866 5.84826L11.0016 5.91851" fill="#8ABDD8"/>
<path d="M11.255 5.80997L11.691 4.82897C11.691 4.82897 12.7607 4.10347 12.5607 5.44822L11.7642 6.17222L11.255 5.80997ZM11.325 7.26247L11.2667 8.27497C11.2667 8.27497 10.564 9.27197 10.2922 8.01847L10.7545 7.11272L11.325 7.26247ZM11.755 6.37522L12.7285 6.68197C12.7285 6.68197 13.463 7.68447 12.1382 7.67897L11.41 6.95822L11.755 6.37522Z" fill="#86CDEC"/>
<path d="M10.7574 7.0907L10.3014 7.99645C10.3014 7.99645 9.25942 8.63145 9.50842 7.37245L10.2942 6.72595L10.7574 7.0907Z" fill="#8ABDD8"/>
<path d="M10.4548 6.97877L9.50905 7.34277C9.50905 7.34277 8.3108 7.11227 9.34205 6.34802L10.3578 6.39752L10.4548 6.97877Z" fill="#DDE4E9"/>
<path d="M10.355 6.58155L9.36923 6.34405C9.36923 6.34405 8.51422 5.47405 9.79697 5.4303L10.6045 6.04705L10.355 6.58155ZM11.4172 6.13055L12.4152 5.52055C12.4152 5.52055 13.8235 5.5318 12.8127 6.6148L11.6495 6.77005L11.4172 6.13055Z" fill="#8ABDD8"/>
<path d="M10.9756 7.24745C11.4072 7.24745 11.7571 6.89756 11.7571 6.46595C11.7571 6.03434 11.4072 5.68445 10.9756 5.68445C10.544 5.68445 10.1941 6.03434 10.1941 6.46595C10.1941 6.89756 10.544 7.24745 10.9756 7.24745Z" fill="#ECD4A9"/>
<path d="M10.805 6.61777C10.7008 6.50009 10.6346 6.35367 10.6151 6.19771C10.5956 6.04175 10.6236 5.88353 10.6955 5.74377C10.5763 5.78762 10.4695 5.85988 10.3845 5.95427C10.2995 6.04867 10.2387 6.16237 10.2075 6.28553C10.1763 6.40869 10.1756 6.5376 10.2055 6.66109C10.2353 6.78459 10.2948 6.89895 10.3788 6.99427C10.5161 7.14948 10.7094 7.24383 10.9162 7.25658C11.123 7.26933 11.3265 7.19944 11.4818 7.06227C11.5573 6.99527 11.615 6.91802 11.659 6.83327C11.5115 6.88757 11.3511 6.89605 11.1987 6.8576C11.0463 6.81914 10.9091 6.73555 10.805 6.61777Z" fill="#E7CB9F"/>
<path d="M11.585 6.99646L12.1962 7.80546C12.1962 7.80546 12.3052 9.02146 11.286 8.24171L11.053 7.25146L11.585 6.99646Z" fill="#8ABDD8"/>
<path d="M6.7257 6.25997L6.05095 5.50497C6.05095 5.50497 5.84195 4.30222 6.92145 4.99672L7.23445 5.96397L6.7257 6.26122" fill="#86CDEC"/>
<path d="M7.24866 5.979L6.93091 5.016C6.93091 5.016 7.21766 3.83 7.93091 4.897L7.83266 5.909L7.24791 5.979" fill="#8ABDD8"/>
<path d="M7.50004 5.86994L7.93579 4.88894C7.93579 4.88894 9.00629 4.16344 8.80629 5.50794L8.00879 6.23194L7.50004 5.86994ZM7.57254 7.32244L7.51529 8.33469C7.51529 8.33469 6.81179 9.33219 6.54004 8.07844L7.00179 7.17269L7.57254 7.32244ZM8.00254 6.43569L8.97654 6.74244C8.97654 6.74244 9.71104 7.74744 8.38579 7.73944L7.65804 7.01869L8.00254 6.43569Z" fill="#86CDEC"/>
<path d="M7.005 7.151L6.5485 8.05676C6.5485 8.05676 5.50625 8.69201 5.75625 7.43275L6.541 6.78625L7.005 7.151Z" fill="#8ABDD8"/>
<path d="M6.70229 7.04005L5.75679 7.40405C5.75679 7.40405 4.55779 7.17355 5.58879 6.40955L6.60479 6.4588L6.70229 7.04005Z" fill="#DDE4E9"/>
<path d="M6.60277 6.64198L5.61727 6.40423C5.61727 6.40423 4.76202 5.53423 6.04427 5.49048L6.85177 6.10723L6.60277 6.64198ZM7.66377 6.19073L8.66177 5.58048C8.66177 5.58048 10.0705 5.59223 9.05977 6.67473L7.89627 6.83048L7.66377 6.19073Z" fill="#8ABDD8"/>
<path d="M7.22241 7.30872C7.65388 7.30872 8.00366 6.95894 8.00366 6.52747C8.00366 6.09599 7.65388 5.74622 7.22241 5.74622C6.79094 5.74622 6.44116 6.09599 6.44116 6.52747C6.44116 6.95894 6.79094 7.30872 7.22241 7.30872Z" fill="#ECD4A9"/>
<path d="M7.04999 6.67796C6.9455 6.56044 6.87909 6.414 6.85954 6.25796C6.83999 6.10192 6.86822 5.94362 6.94049 5.80396C6.82124 5.84776 6.71449 5.92 6.62948 6.01442C6.54448 6.10883 6.48379 6.22256 6.4527 6.34573C6.42161 6.46891 6.42104 6.59781 6.45105 6.72126C6.48106 6.8447 6.54074 6.95896 6.62492 7.05412C6.70909 7.14927 6.81521 7.22245 6.93407 7.2673C7.05293 7.31215 7.18094 7.32732 7.30699 7.31149C7.43304 7.29566 7.55332 7.24931 7.6574 7.17646C7.76148 7.10361 7.84621 7.00647 7.90424 6.89346C7.75672 6.94781 7.59622 6.95632 7.44378 6.91786C7.29134 6.87941 7.15408 6.79578 7.04999 6.67796Z" fill="#E7CB9F"/>
<path d="M7.83253 7.0575L8.44403 7.867C8.44403 7.867 8.55303 9.0825 7.53378 8.30325L7.30078 7.313L7.83253 7.0575Z" fill="#8ABDD8"/>
<path d="M7.90121 7.44449C7.90121 7.44449 7.39621 7.24199 7.28846 6.58924C7.17896 5.93624 6.70896 6.08274 6.70896 6.08274L5.76196 7.29924C5.82196 6.58924 5.85746 5.61674 5.62146 5.40324C5.23896 5.05999 4.73221 5.64599 4.73221 5.64599C4.73221 5.64599 4.35546 6.03674 3.70896 5.89299C3.06246 5.74974 3.02146 6.23999 3.02146 6.23999L3.91071 7.77549C3.27446 7.50249 2.47171 7.21199 2.21346 7.35549C1.76471 7.60449 2.15396 8.27549 2.15396 8.27549C2.15396 8.27549 2.40146 8.75749 2.05596 9.32249C1.71171 9.88799 2.16171 10.0852 2.16171 10.0852L3.60921 9.79949C3.22371 10.3732 2.79196 11.1047 2.88496 11.3845C3.04646 11.8712 3.77846 11.6125 3.77846 11.6125C3.77846 11.6125 4.29746 11.4592 4.78846 11.9035C5.27946 12.3477 5.55746 11.941 5.55746 11.941L5.54171 9.92099C5.86346 10.4907 6.60021 11.7252 6.99246 11.7672C7.50296 11.823 7.57121 11.051 7.57121 11.051C7.57121 11.051 7.64921 10.514 8.25646 10.2517C8.86596 9.99049 8.61046 9.56874 8.61046 9.56874L7.12121 8.90174C7.72521 8.69674 8.36771 8.42674 8.45821 8.17849C8.63371 7.69574 7.90096 7.44549 7.90096 7.44549" fill="#F46384"/>
<path d="M5.54246 9.98055C5.54246 9.98055 6.96446 11.229 7.89271 10.4878C7.89271 10.4878 7.53346 10.8443 7.57221 11.0498C7.57221 11.0498 7.48546 11.6753 7.16396 11.752C7.16396 11.752 6.92946 11.8303 6.71821 11.6085C6.50671 11.3868 5.89246 10.5435 5.54246 9.98055ZM4.62396 11.4283C4.62396 11.4283 3.89271 11.687 3.73071 11.2008C3.63896 10.921 4.06946 10.1895 4.45471 9.6163L3.00771 9.90155C3.00771 9.90155 2.55596 9.7038 2.90146 9.1393C3.24671 8.5738 3.00046 8.0913 3.00046 8.0913C3.00046 8.0913 2.76971 7.6923 2.86971 7.39605C2.57971 7.31755 2.33496 7.28755 2.21346 7.35555C1.76471 7.60455 2.15396 8.27555 2.15396 8.27555C2.15396 8.27555 2.40146 8.75755 2.05596 9.32255C1.71171 9.88805 2.16171 10.0853 2.16171 10.0853L3.60921 9.79955C3.22371 10.3733 2.79196 11.1048 2.88496 11.3845C3.04646 11.8713 3.77846 11.6125 3.77846 11.6125C3.77846 11.6125 4.29746 11.4593 4.78846 11.9035C5.27946 12.3478 5.55746 11.941 5.55746 11.941L5.55571 11.6545C5.08996 11.292 4.62396 11.4283 4.62396 11.4283ZM4.75746 7.5923L3.86871 6.05655C3.86871 6.05655 3.87371 5.99405 3.90921 5.9208C3.84216 5.91692 3.77552 5.90764 3.70996 5.89305C3.06346 5.7498 3.02246 6.24005 3.02246 6.24005L3.56446 7.1743C3.91471 7.2508 4.36821 7.4243 4.75746 7.5923Z" fill="#D34D75"/>
<path d="M5.10961 9.57896C5.6387 9.57896 6.06761 9.15005 6.06761 8.62096C6.06761 8.09188 5.6387 7.66296 5.10961 7.66296C4.58052 7.66296 4.15161 8.09188 4.15161 8.62096C4.15161 9.15005 4.58052 9.57896 5.10961 9.57896Z" fill="#FFC84D"/>
<path d="M7.15506 7.99994C7.05456 7.96619 6.95356 7.93244 6.85581 7.89344C6.68881 7.82694 6.46456 7.97944 6.40081 8.14594C6.36806 8.23194 6.36806 8.32569 6.40306 8.40219C6.44281 8.48969 6.51156 8.52769 6.59756 8.56294C6.69531 8.60244 6.79681 8.63669 6.89681 8.67044C7.06906 8.72769 7.28456 8.59194 7.35081 8.41794C7.42581 8.22719 7.32806 8.05769 7.15506 8.00044M6.29506 6.93969C6.20931 7.00269 6.12331 7.06519 6.03481 7.12194C5.88256 7.22019 5.87756 7.48994 5.97531 7.63794C6.02631 7.71569 6.10356 7.76944 6.18656 7.78594C6.27981 7.80344 6.35056 7.77119 6.43006 7.72044C6.51856 7.66369 6.60506 7.60119 6.69131 7.53869C6.83731 7.43119 6.85281 7.17769 6.74956 7.02219C6.63581 6.85144 6.44131 6.83244 6.29506 6.93969ZM4.95581 6.63619C4.94256 6.74194 4.92856 6.84694 4.90931 6.95144C4.87606 7.12869 5.06856 7.31769 5.24331 7.34844C5.33456 7.36419 5.42681 7.34594 5.49581 7.29619C5.57306 7.24019 5.59756 7.16669 5.61531 7.07494C5.63631 6.97094 5.65006 6.86594 5.66281 6.76069C5.68506 6.58069 5.51156 6.39569 5.32756 6.36294C5.12606 6.32794 4.97806 6.45644 4.95581 6.63619ZM3.73531 7.30744C3.81081 7.38219 3.88681 7.45694 3.95706 7.53494C4.07731 7.66869 4.34631 7.62969 4.47581 7.50944C4.54456 7.44594 4.58481 7.36194 4.58831 7.27694C4.58931 7.18119 4.54556 7.11719 4.48331 7.04744C4.41331 6.96894 4.33756 6.89419 4.26181 6.81969C4.13156 6.69244 3.87856 6.71919 3.74231 6.84569C3.59306 6.98469 3.60531 7.17994 3.73531 7.30744ZM3.12681 8.42369C3.22881 8.45494 3.32981 8.48769 3.42806 8.52469C3.59706 8.58919 3.81756 8.43294 3.87881 8.26594C3.91031 8.17844 3.90856 8.08494 3.87206 8.00869C3.83006 7.92244 3.76256 7.88544 3.67581 7.85194C3.57731 7.81344 3.47581 7.78119 3.37431 7.74944C3.20181 7.69494 2.98831 7.83469 2.92456 8.00944C2.85306 8.20169 2.95431 8.36969 3.12681 8.42369ZM3.37956 9.62344C3.47706 9.58094 3.57481 9.53994 3.67406 9.50369C3.84506 9.44269 3.90931 9.18044 3.84706 9.01394C3.81716 8.93008 3.75534 8.86143 3.67506 8.82294C3.58656 8.78444 3.51006 8.79994 3.42256 8.83169C3.32381 8.86744 3.22556 8.90894 3.12781 8.95094C2.96181 9.02219 2.88981 9.26744 2.95481 9.44069C3.02656 9.63269 3.21356 9.69519 3.37956 9.62344ZM4.20681 10.3852C4.24331 10.2847 4.28006 10.1854 4.32356 10.0879C4.39506 9.92394 4.25031 9.69594 4.08756 9.62594C4.00131 9.58969 3.90731 9.58694 3.83006 9.61969C3.74131 9.65669 3.70056 9.72269 3.66381 9.80869C3.62006 9.90544 3.58256 10.0044 3.54656 10.1042C3.48381 10.2747 3.61206 10.4949 3.78306 10.5677C3.97131 10.6464 4.14356 10.5557 4.20681 10.3852ZM5.36406 10.4852C5.34348 10.3811 5.32622 10.2764 5.31231 10.1712C5.28956 9.99194 5.04881 9.87044 4.87181 9.89444C4.78345 9.90564 4.70302 9.95107 4.64781 10.0209C4.59181 10.0982 4.59081 10.1752 4.60156 10.2679C4.61381 10.3734 4.63381 10.4779 4.65281 10.5819C4.68556 10.7602 4.90906 10.8842 5.09281 10.8587C5.29581 10.8309 5.39781 10.6634 5.36406 10.4852ZM6.51506 9.95394C6.44232 9.87657 6.37219 9.79677 6.30481 9.71469C6.19206 9.57394 5.92331 9.59794 5.78656 9.71119C5.75197 9.73855 5.72313 9.77246 5.70168 9.81098C5.68022 9.84951 5.66659 9.89189 5.66156 9.93569C5.65456 10.0319 5.69306 10.0977 5.75181 10.1709C5.81831 10.2534 5.88956 10.3322 5.96081 10.4107C6.08281 10.5444 6.33806 10.5322 6.48056 10.4142C6.63881 10.2842 6.63681 10.0887 6.51506 9.95394ZM7.14231 9.19094C7.05174 9.13573 6.96286 9.07779 6.87581 9.01719C6.72806 8.91319 6.47581 9.00894 6.37331 9.15544C6.32189 9.22792 6.30114 9.31776 6.31556 9.40544C6.33381 9.49969 6.39106 9.55294 6.46706 9.60719C6.55331 9.66869 6.64331 9.72594 6.73281 9.78144C6.88731 9.87669 7.12881 9.79619 7.23531 9.64219C7.35056 9.47394 7.29656 9.28644 7.14231 9.19094Z" fill="#E45A6F"/>
<path d="M5.2525 9.83C5.24564 9.73756 5.24164 9.64494 5.2405 9.55225C5.237 9.3925 5.07525 9.30225 4.9475 9.336C4.87751 9.35776 4.81769 9.404 4.779 9.46625C4.7325 9.5395 4.72575 9.60975 4.727 9.69225C4.729 9.785 4.7335 9.87825 4.7405 9.97C4.74196 10.0047 4.75115 10.0385 4.76741 10.0692C4.78367 10.0998 4.80657 10.1264 4.83445 10.1471C4.86233 10.1677 4.89447 10.1819 4.92853 10.1885C4.96258 10.1951 4.99768 10.194 5.03125 10.1853C5.17825 10.1465 5.2625 9.98825 5.2525 9.83ZM4.4665 9.71975C4.51325 9.63925 4.55975 9.56 4.6115 9.481C4.6985 9.34825 4.614 9.18175 4.49025 9.14025C4.41987 9.11796 4.34369 9.12286 4.27675 9.154C4.198 9.18875 4.153 9.24325 4.1085 9.31225C4.0575 9.39075 4.00917 9.47017 3.9635 9.5505C3.94553 9.58015 3.93439 9.61342 3.93087 9.64791C3.92735 9.68239 3.93155 9.71723 3.94315 9.7499C3.95476 9.78256 3.97349 9.81224 3.99798 9.83677C4.02246 9.8613 4.05211 9.88009 4.08475 9.89175C4.22825 9.94 4.38625 9.8555 4.4665 9.71975ZM4.04 9.19375C4.11925 9.144 4.1975 9.095 4.27875 9.04825C4.4175 8.97 4.41925 8.784 4.32825 8.68875C4.27561 8.63762 4.20606 8.60756 4.13275 8.60425C4.04625 8.5985 3.9815 8.62625 3.9095 8.66625C3.82825 8.71275 3.75025 8.7615 3.67125 8.81125C3.64162 8.82937 3.61638 8.85384 3.59738 8.88291C3.57837 8.91198 3.56606 8.94491 3.56135 8.97932C3.55663 9.01373 3.55963 9.04876 3.57012 9.08186C3.58061 9.11497 3.59833 9.14533 3.622 9.17075C3.7275 9.27975 3.90675 9.27875 4.04 9.19375ZM3.83425 8.5225C3.92625 8.532 4.01825 8.54417 4.11025 8.559C4.26775 8.585 4.38625 8.44175 4.376 8.311C4.36714 8.23793 4.33173 8.17066 4.2765 8.122C4.21325 8.06275 4.14575 8.04375 4.064 8.0305C3.97236 8.01552 3.88033 8.0031 3.788 7.99325C3.75358 7.98869 3.71858 7.99183 3.68553 8.00245C3.65248 8.01307 3.6222 8.03091 3.59689 8.05466C3.57158 8.07842 3.55186 8.10751 3.53917 8.13982C3.52647 8.17214 3.52112 8.20687 3.5235 8.2415C3.5365 8.3925 3.678 8.504 3.83425 8.5225ZM4.1775 7.8075C4.23475 7.88025 4.29225 7.9535 4.34625 8.03025C4.43825 8.15975 4.62325 8.14275 4.708 8.0425C4.752 7.98925 4.77575 7.916 4.773 7.83925C4.77 7.752 4.7355 7.69075 4.688 7.62375C4.634 7.54725 4.5765 7.474 4.52025 7.40075C4.49921 7.37315 4.47229 7.35058 4.44145 7.33468C4.4106 7.31877 4.3766 7.30994 4.34192 7.30881C4.30723 7.30769 4.27273 7.3143 4.24092 7.32817C4.2091 7.34204 4.18078 7.36282 4.158 7.389C4.05975 7.50475 4.07925 7.683 4.1775 7.8075ZM4.8945 7.431C4.8945 7.52375 4.8935 7.6165 4.889 7.70975C4.8795 7.869 5.0345 7.971 5.164 7.9455C5.23175 7.93125 5.2965 7.88875 5.34125 7.8275C5.393 7.757 5.404 7.6875 5.40925 7.6055C5.414 7.51225 5.4155 7.4195 5.416 7.32675C5.41681 7.29205 5.40989 7.2576 5.39574 7.22591C5.3816 7.19421 5.36057 7.16606 5.3342 7.14349C5.30783 7.12092 5.27677 7.1045 5.24326 7.09542C5.20976 7.08635 5.17466 7.08484 5.1405 7.091C4.99225 7.1215 4.896 7.27275 4.8945 7.431ZM5.6375 7.555C5.5856 7.63219 5.53175 7.70805 5.476 7.7825C5.3805 7.91 5.45225 8.08125 5.573 8.13175C5.6375 8.1585 5.7145 8.1585 5.78625 8.13325C5.86875 8.10375 5.9165 8.05225 5.96725 7.98725C6.0235 7.912 6.076 7.836 6.1285 7.75875C6.14853 7.73041 6.16198 7.69795 6.16788 7.66374C6.17377 7.62954 6.17196 7.59445 6.16257 7.56103C6.15318 7.52762 6.13645 7.49672 6.1136 7.47059C6.09075 7.44446 6.06236 7.42376 6.0305 7.41C5.89 7.352 5.72575 7.42475 5.6375 7.555ZM6.24675 8.075C6.15842 8.10117 6.06875 8.12525 5.97775 8.14725C5.82275 8.1835 5.7675 8.361 5.8285 8.47725C5.861 8.53775 5.9205 8.5885 5.992 8.6145C6.0735 8.64425 6.14325 8.636 6.22325 8.618C6.3135 8.597 6.404 8.572 6.49275 8.54675C6.64475 8.50275 6.70575 8.33775 6.64225 8.21575C6.572 8.08125 6.3995 8.03225 6.24675 8.075ZM5.96575 9.47225C5.9085 9.3995 5.85075 9.32575 5.7975 9.2495C5.70475 9.1195 5.52 9.13575 5.4345 9.23675C5.38921 9.29461 5.36575 9.36657 5.36825 9.44C5.37175 9.526 5.40575 9.588 5.4535 9.65475C5.50775 9.7315 5.564 9.80475 5.62175 9.8775C5.64272 9.90516 5.66958 9.92782 5.70039 9.94383C5.73119 9.95984 5.76517 9.9688 5.79986 9.97007C5.83455 9.97134 5.86909 9.96488 5.90098 9.95116C5.93287 9.93744 5.96131 9.91681 5.98425 9.89075C6.08175 9.7755 6.06225 9.59675 5.96575 9.47225ZM6.3495 8.895C6.26503 8.85617 6.18167 8.81498 6.0995 8.7715C5.95875 8.69625 5.801 8.7945 5.76975 8.9225C5.754 8.9895 5.766 9.0665 5.80225 9.133C5.84425 9.20975 5.9025 9.24925 5.97575 9.28775C6.05875 9.33175 6.14175 9.37175 6.22575 9.41125C6.25691 9.42653 6.29108 9.43469 6.32578 9.43513C6.36048 9.43557 6.39485 9.42829 6.42639 9.41381C6.45793 9.39934 6.48586 9.37802 6.50814 9.35142C6.53043 9.32482 6.54652 9.29359 6.55525 9.26C6.5905 9.11275 6.4935 8.9625 6.35075 8.895" fill="white"/>
<path d="M8.09906 7.71476C8.09906 7.71476 8.60406 7.51201 8.71181 6.85926C8.82131 6.20651 9.29131 6.35301 9.29131 6.35301L10.2383 7.56926C10.1783 6.85926 10.1428 5.88676 10.3788 5.67326C10.7613 5.33001 11.2681 5.91601 11.2681 5.91601C11.2681 5.91601 11.6448 6.30676 12.2913 6.16301C12.9378 6.02001 12.9788 6.51026 12.9788 6.51026L12.0896 8.04551C12.7258 7.77251 13.5286 7.48201 13.7868 7.62551C14.2356 7.87451 13.8463 8.54551 13.8463 8.54551C13.8463 8.54551 13.5988 9.02751 13.9443 9.59251C14.2886 10.158 13.8386 10.3553 13.8386 10.3553L12.3911 10.0695C12.7766 10.6433 13.2083 11.3748 13.1153 11.6545C12.9538 12.1413 12.2218 11.8825 12.2218 11.8825C12.2218 11.8825 11.7028 11.7293 11.2118 12.1735C10.7208 12.6178 10.4428 12.211 10.4428 12.211L10.4586 10.191C10.1368 10.7608 9.40006 11.9953 9.00781 12.0373C8.49731 12.093 8.42906 11.321 8.42906 11.321C8.42906 11.321 8.35106 10.784 7.74381 10.5218C7.13431 10.2605 7.38981 9.83876 7.38981 9.83876L8.87906 9.17176C8.27506 8.96676 7.63256 8.69676 7.54206 8.44901C7.36656 7.96576 8.09931 7.71576 8.09931 7.71576" fill="#F46384"/>
<path d="M10.4579 10.25C10.4579 10.25 9.03592 11.4985 8.10767 10.7572C8.10767 10.7572 8.46692 11.1137 8.42817 11.3192C8.42817 11.3192 8.51492 11.9447 8.83642 12.0215C8.83642 12.0215 9.07092 12.0997 9.28217 11.878C9.49367 11.6562 10.1079 10.813 10.4579 10.25ZM11.3762 11.6982C11.3762 11.6982 12.1074 11.957 12.2694 11.4707C12.3612 11.191 11.9307 10.4595 11.5454 9.88623L12.9924 10.1715C12.9924 10.1715 13.4442 9.97373 13.0987 9.40923C12.7534 8.84373 12.9997 8.36148 12.9997 8.36148C12.9997 8.36148 13.2304 7.96248 13.1304 7.66598C13.4204 7.58748 13.6652 7.55748 13.7867 7.62548C14.2354 7.87448 13.8462 8.54548 13.8462 8.54548C13.8462 8.54548 13.5987 9.02748 13.9442 9.59248C14.2884 10.158 13.8384 10.3552 13.8384 10.3552L12.3909 10.0695C12.7764 10.6432 13.2082 11.3747 13.1152 11.6545C12.9537 12.1412 12.2217 11.8825 12.2217 11.8825C12.2217 11.8825 11.7027 11.7292 11.2117 12.1735C10.7207 12.6177 10.4427 12.211 10.4427 12.211L10.4444 11.9245C10.9102 11.562 11.3762 11.6982 11.3762 11.6982ZM11.2437 7.86223L12.1324 6.32648C12.1324 6.32648 12.1274 6.26398 12.0919 6.19073C12.1549 6.18673 12.2214 6.17848 12.2912 6.16298C12.9377 6.01998 12.9787 6.51023 12.9787 6.51023L12.4367 7.44423C12.0864 7.52073 11.6329 7.69423 11.2437 7.86223Z" fill="#D34D75"/>
<path d="M10.8909 9.84898C11.42 9.84898 11.8489 9.42007 11.8489 8.89098C11.8489 8.36189 11.42 7.93298 10.8909 7.93298C10.3618 7.93298 9.93286 8.36189 9.93286 8.89098C9.93286 9.42007 10.3618 9.84898 10.8909 9.84898Z" fill="#FFC84D"/>
<path d="M8.84505 8.26996C8.94555 8.23621 9.04655 8.20246 9.1443 8.16346C9.3113 8.09696 9.53555 8.24946 9.5993 8.41596C9.63205 8.50196 9.63205 8.59571 9.59705 8.67221C9.5573 8.76021 9.48855 8.79771 9.40255 8.83296C9.3048 8.87296 9.2033 8.90671 9.1033 8.94046C8.93105 8.99771 8.71555 8.86196 8.6493 8.68796C8.5743 8.49746 8.67205 8.32771 8.84505 8.27046M9.7048 7.20971C9.79055 7.27271 9.87655 7.33521 9.96505 7.39196C10.1173 7.49021 10.1223 7.76021 10.0246 7.90796C10.0009 7.94537 9.97 7.9777 9.93374 8.00311C9.89748 8.02851 9.85655 8.04648 9.8133 8.05596C9.72005 8.07346 9.6493 8.04121 9.5698 7.99046C9.4813 7.93371 9.3948 7.87121 9.30855 7.80871C9.16255 7.70121 9.14705 7.44796 9.2503 7.29221C9.36405 7.12146 9.55855 7.10246 9.7048 7.20971ZM11.0451 6.90646C11.0583 7.01196 11.0723 7.11696 11.0916 7.22146C11.1248 7.39871 10.9323 7.58771 10.7576 7.61846C10.7141 7.62686 10.6694 7.62657 10.6261 7.6176C10.5827 7.60864 10.5416 7.59117 10.5051 7.56621C10.4278 7.51046 10.4033 7.43671 10.3856 7.34496C10.3656 7.24097 10.3497 7.13622 10.3381 7.03096C10.3158 6.85071 10.4893 6.66571 10.6733 6.63296C10.8748 6.59796 11.0228 6.72646 11.0451 6.90646ZM12.2651 7.57746C12.1896 7.65221 12.1136 7.72696 12.0433 7.80496C11.9231 7.93871 11.6541 7.89971 11.5246 7.77946C11.4579 7.71978 11.4175 7.63624 11.4121 7.54696C11.4111 7.45121 11.4548 7.38721 11.5171 7.31746C11.5871 7.23896 11.6628 7.16421 11.7386 7.08996C11.8688 6.96246 12.1218 6.98946 12.2581 7.11596C12.4073 7.25471 12.3951 7.44996 12.2651 7.57746ZM12.8726 8.69371C12.7706 8.72496 12.6696 8.75771 12.5713 8.79471C12.4023 8.85921 12.1818 8.70296 12.1206 8.53596C12.0891 8.44896 12.0908 8.35521 12.1273 8.27921C12.1693 8.19271 12.2368 8.15571 12.3236 8.12246C12.4221 8.08396 12.5236 8.05171 12.6251 8.01996C12.7976 7.96521 13.0111 8.10496 13.0748 8.27996C13.1463 8.47171 13.0451 8.63971 12.8726 8.69371ZM12.6201 9.89396C12.5226 9.85096 12.4248 9.80996 12.3256 9.77396C12.1546 9.71296 12.0903 9.45071 12.1526 9.28421C12.1853 9.19721 12.2478 9.12796 12.3246 9.09321C12.4131 9.05471 12.4896 9.07021 12.5771 9.10196C12.6758 9.13771 12.7741 9.17921 12.8718 9.22121C13.0378 9.29296 13.1098 9.53771 13.0448 9.71096C12.9731 9.90271 12.7861 9.96521 12.6201 9.89396ZM11.7926 10.6552C11.7572 10.5548 11.7182 10.4556 11.6758 10.358C11.6043 10.194 11.7491 9.96596 11.9118 9.89596C11.9981 9.85971 12.0921 9.85696 12.1693 9.88971C12.2581 9.92671 12.2988 9.99271 12.3356 10.0787C12.3793 10.1755 12.4168 10.2745 12.4528 10.3742C12.5156 10.5447 12.3873 10.765 12.2163 10.8377C12.0281 10.9165 11.8558 10.8257 11.7926 10.6552ZM10.6363 10.755C10.6566 10.6505 10.6748 10.5455 10.6881 10.441C10.7108 10.2617 10.9516 10.1402 11.1286 10.1642C11.2193 10.1775 11.3008 10.2227 11.3526 10.2907C11.4086 10.368 11.4096 10.445 11.3988 10.5377C11.3866 10.6437 11.3666 10.7477 11.3476 10.8517C11.3148 11.03 11.0913 11.154 10.9076 11.1285C10.7046 11.1007 10.6026 10.9332 10.6363 10.755ZM9.4858 10.224C9.55855 10.1457 9.6293 10.0667 9.69605 9.98471C9.8088 9.84396 10.0776 9.86796 10.2143 9.98121C10.2858 10.0397 10.3316 10.1215 10.3393 10.2062C10.3463 10.302 10.3078 10.3677 10.2491 10.441C10.1826 10.5235 10.1113 10.6022 10.0401 10.6807C9.91805 10.8145 9.6628 10.8022 9.5203 10.6842C9.36205 10.5542 9.36405 10.359 9.4858 10.224ZM8.85805 9.46096C8.94955 9.40421 9.03855 9.34821 9.12455 9.28721C9.2723 9.18321 9.52455 9.27946 9.62705 9.42546C9.6793 9.50121 9.7003 9.59246 9.6848 9.67546C9.66655 9.76971 9.6093 9.82346 9.5333 9.87721C9.44705 9.93871 9.35705 9.99596 9.26755 10.0515C9.11305 10.1467 8.87155 10.0662 8.76505 9.91221C8.6498 9.74421 8.7038 9.55671 8.85805 9.46096Z" fill="#E45A6F"/>
<path d="M10.7468 10.1C10.7533 10.0077 10.7581 9.91547 10.7588 9.82222C10.7623 9.66247 10.9241 9.57221 11.0518 9.60596C11.1173 9.62446 11.1796 9.67196 11.2203 9.73621C11.2668 9.80946 11.2736 9.87971 11.2723 9.96221C11.2703 10.0549 11.2658 10.1475 11.2588 10.24C11.2574 10.2746 11.2482 10.3085 11.2319 10.3392C11.2157 10.3698 11.1928 10.3964 11.1649 10.417C11.137 10.4377 11.1049 10.4518 11.0708 10.4584C11.0368 10.465 11.0017 10.4639 10.9681 10.4552C10.8211 10.4165 10.7368 10.2582 10.7468 10.1ZM11.5326 9.98971C11.4864 9.90886 11.438 9.82925 11.3876 9.75097C11.3006 9.61822 11.3851 9.45171 11.5088 9.41021C11.5746 9.38771 11.6521 9.39271 11.7223 9.42396C11.8011 9.45871 11.8461 9.51321 11.8906 9.58221C11.9416 9.66071 11.9899 9.74013 12.0356 9.82047C12.0536 9.8501 12.0648 9.88338 12.0683 9.91788C12.0719 9.95237 12.0677 9.98723 12.0561 10.0199C12.0445 10.0526 12.0257 10.0823 12.0012 10.1068C11.9767 10.1313 11.947 10.1501 11.9143 10.1617C11.7708 10.21 11.6128 10.1255 11.5326 9.98971ZM11.9591 9.46371C11.8798 9.41396 11.8016 9.36496 11.7203 9.31821C11.5816 9.24046 11.5798 9.05396 11.6708 8.95871C11.7183 8.90996 11.7906 8.87872 11.8663 8.87422C11.9528 8.86847 12.0176 8.89621 12.0896 8.93621C12.1708 8.98271 12.2488 9.03146 12.3278 9.08171C12.3575 9.09978 12.3827 9.12421 12.4017 9.15323C12.4207 9.18226 12.433 9.21515 12.4377 9.24952C12.4424 9.28389 12.4394 9.31888 12.4289 9.35195C12.4185 9.38502 12.4007 9.41534 12.3771 9.44071C12.2716 9.54971 12.0923 9.54871 11.9591 9.46371ZM12.1661 8.79246C12.0741 8.80246 11.9821 8.81463 11.8901 8.82897C11.7326 8.85497 11.6141 8.71172 11.6243 8.58097C11.6308 8.51272 11.6666 8.44372 11.7238 8.39197C11.7871 8.33297 11.8546 8.31371 11.9363 8.30071C12.0286 8.28496 12.1208 8.27347 12.2123 8.26322C12.2467 8.25866 12.2817 8.26179 12.3147 8.2724C12.3478 8.28301 12.378 8.30082 12.4033 8.32455C12.4286 8.34828 12.4484 8.37733 12.4611 8.40962C12.4738 8.4419 12.4792 8.4766 12.4768 8.51121C12.4636 8.66246 12.3223 8.77396 12.1661 8.79246ZM11.8226 8.07747C11.7653 8.15047 11.7078 8.22346 11.6538 8.30021C11.5618 8.42971 11.3768 8.41246 11.2921 8.31246C11.2462 8.25497 11.2231 8.18264 11.2271 8.10921C11.2301 8.02221 11.2646 7.96071 11.3121 7.89396C11.3661 7.81721 11.4236 7.74396 11.4798 7.67071C11.5009 7.64311 11.5278 7.62054 11.5586 7.60464C11.5895 7.58874 11.6235 7.5799 11.6582 7.57878C11.6929 7.57765 11.7274 7.58427 11.7592 7.59814C11.791 7.61201 11.8193 7.63278 11.8421 7.65896C11.9403 7.77471 11.9208 7.95297 11.8226 8.07747ZM11.1051 7.70097C11.1051 7.79372 11.1061 7.88646 11.1106 7.97971C11.1201 8.13896 10.9651 8.24096 10.8356 8.21571C10.7641 8.19944 10.701 8.15755 10.6583 8.09796C10.6066 8.02721 10.5956 7.95771 10.5903 7.87571C10.586 7.78286 10.5838 7.68992 10.5836 7.59696C10.5828 7.56228 10.5898 7.52785 10.6039 7.49618C10.6181 7.4645 10.6391 7.43637 10.6655 7.41381C10.6918 7.39125 10.7229 7.37483 10.7564 7.36574C10.7898 7.35664 10.8249 7.3551 10.8591 7.36121C11.0073 7.39146 11.1036 7.54272 11.1051 7.70097ZM10.3626 7.82496C10.4146 7.9023 10.4684 7.97813 10.5241 8.05246C10.6196 8.17996 10.5478 8.35146 10.4271 8.40171C10.3586 8.42832 10.2827 8.42885 10.2138 8.40321C10.1313 8.37396 10.0836 8.32271 10.0328 8.25721C9.97738 8.18218 9.92362 8.10591 9.87158 8.02846C9.85155 8.00012 9.8381 7.96766 9.8322 7.93346C9.82631 7.89925 9.82812 7.86416 9.83751 7.83075C9.8469 7.79733 9.86363 7.76643 9.88648 7.74031C9.90933 7.71418 9.93772 7.69348 9.96958 7.67971C10.1101 7.62196 10.2743 7.69471 10.3626 7.82496ZM9.75258 8.34421C9.84091 8.37038 9.93058 8.3943 10.0216 8.41597C10.1766 8.45222 10.2318 8.62972 10.1708 8.74597C10.1383 8.80647 10.0788 8.85722 10.0073 8.88322C9.92583 8.91297 9.85608 8.90522 9.77608 8.88672C9.68569 8.86515 9.59583 8.84139 9.50658 8.81547C9.47305 8.80642 9.44193 8.79006 9.41548 8.76755C9.38903 8.74504 9.36789 8.71695 9.3536 8.6853C9.3393 8.65365 9.3322 8.61922 9.3328 8.58449C9.3334 8.54976 9.3417 8.5156 9.35708 8.48446C9.42733 8.34996 9.59983 8.30121 9.75258 8.34421ZM10.0351 9.74222C10.0923 9.66947 10.1501 9.59571 10.2033 9.51946C10.2961 9.38946 10.4808 9.40571 10.5663 9.50671C10.6096 9.55896 10.6343 9.63321 10.6326 9.70996C10.6291 9.79596 10.5951 9.85797 10.5473 9.92472C10.4931 10.0015 10.4368 10.0747 10.3791 10.1475C10.3581 10.1751 10.3312 10.1978 10.3004 10.2138C10.2696 10.2298 10.2357 10.2388 10.201 10.24C10.1663 10.2413 10.1317 10.2348 10.0999 10.2211C10.068 10.2074 10.0395 10.1868 10.0166 10.1607C9.91908 10.0455 9.93858 9.86672 10.0351 9.74222ZM9.65083 9.16496C9.73608 9.12546 9.81933 9.08496 9.90333 9.04146C10.0441 8.96671 10.2018 9.06446 10.2331 9.19246C10.2488 9.25996 10.2368 9.33646 10.2006 9.40296C10.1586 9.47971 10.1003 9.51921 10.0271 9.55771C9.94408 9.60171 9.86108 9.64171 9.77708 9.68121C9.74592 9.69649 9.71175 9.70465 9.67705 9.70509C9.64235 9.70554 9.60798 9.69826 9.57644 9.68378C9.5449 9.6693 9.51697 9.64799 9.49469 9.62138C9.4724 9.59478 9.45631 9.56355 9.44758 9.52996C9.41233 9.38271 9.50933 9.23246 9.65208 9.16496" fill="white"/>
<path d="M11.2414 4.92125C11.2414 4.92125 10.9484 4.46525 11.2367 3.8695C11.5252 3.27325 11.0577 3.1205 11.0577 3.1205L9.5807 3.56475C10.0412 3.02075 10.6329 2.248 10.5642 1.93725C10.4522 1.43725 9.69895 1.61975 9.69895 1.61975C9.69895 1.61975 9.16595 1.72075 8.7212 1.2295C8.27645 0.738249 7.9597 1.11425 7.9597 1.11425L7.7957 2.87925C7.43595 2.2895 6.94895 1.58725 6.65495 1.555C6.1457 1.498 6.07545 2.27025 6.07545 2.27025C6.07545 2.27025 5.99695 2.8065 5.38845 3.06775C4.77995 3.329 5.0332 3.7505 5.0332 3.7505L6.37845 4.355C5.73245 4.59975 4.95695 4.9465 4.87095 5.228C4.7212 5.7185 5.46695 5.93125 5.46695 5.93125C5.46695 5.93125 5.97945 6.1075 6.12395 6.7535C6.26645 7.4 6.7292 7.23 6.7292 7.23L7.8852 5.5725C7.81745 6.2235 7.7047 7.65675 7.99895 7.918C8.3832 8.259 8.8852 7.669 8.8852 7.669C8.8852 7.669 9.2602 7.2765 9.9082 7.41425C10.5554 7.55325 10.5922 7.062 10.5922 7.062L9.76395 5.65575C10.3749 5.83825 11.0554 5.99025 11.2739 5.84025C11.6959 5.54975 11.2427 4.92025 11.2427 4.92025" fill="#EFA8B6"/>
<path d="M7.84945 5.62447C7.84945 5.62447 8.28645 7.46472 9.4717 7.39847C9.4717 7.39847 8.9737 7.48072 8.8847 7.67097C8.8847 7.67097 8.4527 8.13147 8.14645 8.00747C8.14645 8.00747 7.90995 7.93472 7.8662 7.63197C7.82195 7.32897 7.8087 6.28547 7.84945 5.62447ZM6.26245 6.27247C6.26245 6.27247 5.5162 6.05972 5.66645 5.56897C5.75345 5.28772 6.5277 4.94097 7.17395 4.69672L5.8292 4.09172C5.8292 4.09172 5.57495 3.66922 6.18445 3.40897C6.79345 3.14822 6.87045 2.61122 6.87045 2.61122C6.87045 2.61122 6.91345 2.15272 7.16695 1.96897C6.97645 1.73772 6.79395 1.57147 6.6547 1.55622C6.14545 1.49922 6.0752 2.27147 6.0752 2.27147C6.0752 2.27147 5.9967 2.80772 5.3882 3.06897C4.7797 3.33022 5.03295 3.75172 5.03295 3.75172L6.3782 4.35622C5.7322 4.60097 4.9567 4.94772 4.8707 5.22922C4.72095 5.71972 5.4667 5.93247 5.4667 5.93247C5.4667 5.93247 5.9792 6.10872 6.1237 6.75472C6.2662 7.40122 6.72895 7.23122 6.72895 7.23122L6.8927 6.99597C6.7222 6.43072 6.26295 6.27247 6.26295 6.27247M8.59245 3.22097L8.7562 1.45597C8.7562 1.45597 8.7962 1.40797 8.86795 1.36897C8.81555 1.32656 8.76633 1.28035 8.7207 1.23072C8.2762 0.73947 7.9592 1.11547 7.9592 1.11547L7.85995 2.19072C8.10245 2.45647 8.37145 2.86022 8.59245 3.22197" fill="#E295A8"/>
<path d="M8.28246 5.22275C8.81141 5.22275 9.24021 4.79395 9.24021 4.265C9.24021 3.73605 8.81141 3.30725 8.28246 3.30725C7.75351 3.30725 7.32471 3.73605 7.32471 4.265C7.32471 4.79395 7.75351 5.22275 8.28246 5.22275Z" fill="#FFC84D"/>
<path d="M10.3126 4.94273C10.2485 4.85805 10.1873 4.77125 10.1291 4.68248C10.0313 4.53148 9.76134 4.52623 9.61334 4.62498C9.53534 4.67573 9.48284 4.75248 9.46609 4.83548C9.44734 4.93023 9.48109 5.00048 9.53134 5.07873C9.58884 5.16798 9.65109 5.25398 9.71384 5.33948C9.82134 5.48548 10.0753 5.50023 10.2308 5.39698C10.4008 5.28448 10.4203 5.08973 10.3126 4.94273ZM10.2246 3.58048C10.1178 3.58223 10.0111 3.58298 9.90609 3.57798C9.72559 3.56973 9.56559 3.78698 9.55959 3.96473C9.55609 4.05748 9.58734 4.14648 9.64584 4.20723C9.71209 4.27573 9.78834 4.29098 9.88159 4.29498C9.98709 4.30023 10.0938 4.29948 10.2001 4.29798C10.3816 4.29498 10.5401 4.09673 10.5466 3.91023C10.5543 3.70623 10.4061 3.57773 10.2246 3.58048ZM9.30759 2.55698C9.23609 2.63548 9.16234 2.71323 9.08709 2.78748C8.95759 2.91248 9.00434 3.17848 9.13034 3.30498C9.19484 3.37048 9.28084 3.40898 9.36484 3.40848C9.46184 3.40748 9.52384 3.36148 9.59159 3.29673C9.66859 3.22398 9.73984 3.14623 9.81159 3.06823C9.93359 2.93448 9.89959 2.68248 9.76834 2.54973C9.62459 2.40473 9.43009 2.42323 9.30759 2.55698ZM7.92384 2.39698C7.94359 2.50223 7.96184 2.60673 7.97334 2.71123C7.99459 2.89048 8.23534 3.01398 8.41159 2.99148C8.50025 2.98103 8.58125 2.93613 8.63709 2.86648C8.69409 2.78973 8.69584 2.71173 8.68434 2.61898C8.67234 2.51398 8.65359 2.40948 8.63484 2.30448C8.60284 2.12598 8.38134 2.00098 8.19684 2.02523C7.99484 2.05198 7.89184 2.21848 7.92384 2.39698ZM6.78009 2.95548C6.84534 3.04073 6.90859 3.12548 6.96784 3.21273C7.06809 3.36323 7.33834 3.36373 7.48434 3.26248C7.56184 3.20998 7.61409 3.13248 7.62834 3.04948C7.64459 2.95473 7.61084 2.88523 7.55884 2.80723C7.50084 2.71873 7.43584 2.63398 7.37234 2.54898C7.26259 2.40523 7.00809 2.39523 6.85484 2.50098C6.68609 2.61648 6.67084 2.81173 6.78009 2.95548ZM6.29259 4.08048C6.39759 4.10223 6.50159 4.12573 6.60209 4.15323C6.77684 4.20198 6.98259 4.02573 7.02684 3.85398C7.03921 3.8116 7.04294 3.76718 7.03783 3.72334C7.03272 3.67949 7.01887 3.63712 6.99709 3.59873C6.94884 3.51623 6.87734 3.48548 6.78759 3.45998C6.68515 3.43258 6.58194 3.40815 6.47809 3.38673C6.30134 3.34873 6.10109 3.50673 6.05434 3.68623C6.00159 3.88423 6.11634 4.04273 6.29259 4.08048ZM6.52759 5.18048C6.61509 5.11998 6.70334 5.06048 6.79459 5.00573C6.94784 4.91298 6.96109 4.64398 6.86934 4.49198C6.84687 4.45391 6.81703 4.4207 6.78158 4.3943C6.74612 4.3679 6.70575 4.34884 6.66284 4.33823C6.56959 4.31673 6.49784 4.34698 6.41809 4.39548C6.32733 4.45007 6.23853 4.50786 6.15184 4.56873C6.00234 4.67123 5.97959 4.92523 6.07634 5.08348C6.18434 5.25698 6.37784 5.28273 6.52759 5.18048ZM7.41259 5.93248C7.45709 5.83523 7.50184 5.73948 7.55209 5.64623C7.63759 5.48698 7.51234 5.24798 7.35409 5.16548C7.27184 5.12348 7.17934 5.11248 7.09859 5.13948C7.00784 5.16873 6.96159 5.23123 6.91709 5.31348C6.86659 5.40673 6.82209 5.50323 6.77659 5.59898C6.70109 5.76398 6.80984 5.99398 6.97584 6.07898C7.15734 6.17473 7.33684 6.09698 7.41259 5.93248ZM8.65834 6.16498C8.64394 6.05972 8.63326 5.95399 8.62634 5.84798C8.61409 5.66773 8.38159 5.53148 8.20434 5.54473C8.11184 5.55123 8.02659 5.59173 7.97184 5.65573C7.91009 5.73023 7.90409 5.80648 7.91009 5.90048C7.91559 6.00598 7.92884 6.11148 7.94134 6.21698C7.96359 6.39673 8.17884 6.53398 8.36309 6.51998C8.56784 6.50523 8.68034 6.34523 8.65834 6.16498ZM9.61184 5.90623C9.56962 5.80873 9.53068 5.70984 9.49509 5.60973C9.43484 5.43973 9.17259 5.37148 9.00659 5.43248C8.91909 5.46373 8.84909 5.52623 8.81409 5.60273C8.77459 5.69098 8.78859 5.76598 8.82059 5.85523C8.85559 5.95573 8.89559 6.05398 8.93659 6.15173C9.00634 6.31823 9.25009 6.39248 9.42534 6.32898C9.61859 6.25898 9.68209 6.07398 9.61184 5.90698" fill="#E45A6F"/>
<path d="M7.70228 5.3332C7.75031 5.25349 7.80066 5.1752 7.85328 5.09845C7.94378 4.9677 7.86328 4.7987 7.74028 4.7537C7.6704 4.73047 7.5944 4.73376 7.52678 4.76295C7.44678 4.7957 7.40053 4.84845 7.35403 4.9167C7.30078 4.99345 7.25203 5.07195 7.20253 5.1512C7.18375 5.18044 7.17174 5.2135 7.16737 5.24797C7.16301 5.28245 7.1664 5.31746 7.1773 5.35045C7.18821 5.38345 7.20634 5.41359 7.23039 5.43868C7.25443 5.46376 7.28378 5.48316 7.31628 5.49545C7.45778 5.5477 7.61853 5.4677 7.70228 5.3332ZM7.12403 4.78745C7.20796 4.748 7.29308 4.71114 7.37928 4.67695C7.52778 4.6187 7.55528 4.4342 7.47853 4.32845C7.43361 4.26999 7.36873 4.23012 7.29628 4.21645C7.21178 4.1987 7.14428 4.2172 7.06853 4.2477C6.98053 4.28145 6.89603 4.3192 6.81078 4.3577C6.77906 4.37166 6.75082 4.39245 6.72808 4.41861C6.70533 4.44476 6.68866 4.47562 6.67925 4.50898C6.66983 4.54233 6.66791 4.57735 6.67362 4.61154C6.67934 4.64572 6.69254 4.67822 6.71228 4.7067C6.80103 4.82845 6.97978 4.8522 7.12403 4.78745ZM7.08203 4.11395C7.17478 4.1187 7.26778 4.12395 7.36028 4.1327C7.51778 4.1497 7.62778 3.9992 7.60828 3.86845C7.595 3.79622 7.55568 3.73138 7.49778 3.6862C7.43103 3.63145 7.36278 3.61695 7.28003 3.60795C7.18778 3.5982 7.09503 3.5927 7.00178 3.58795C6.9672 3.58556 6.93252 3.5909 6.90025 3.60358C6.86799 3.61626 6.83895 3.63597 6.81525 3.66127C6.79156 3.68658 6.77379 3.71684 6.76324 3.74986C6.7527 3.78289 6.74964 3.81785 6.75428 3.8522C6.77653 4.0022 6.92428 4.1047 7.08203 4.11395ZM7.30003 3.4452C7.3707 3.50687 7.4392 3.57028 7.50553 3.63545C7.61728 3.74795 7.79778 3.69945 7.86503 3.58695C7.90022 3.52236 7.91045 3.44709 7.89378 3.37545C7.87578 3.28995 7.83178 3.2352 7.77378 3.17795C7.70732 3.11292 7.63947 3.04932 7.57028 2.9872C7.54474 2.96356 7.51427 2.94587 7.48107 2.9354C7.44787 2.92493 7.41277 2.92194 7.37828 2.92665C7.34379 2.93136 7.31077 2.94365 7.2816 2.96263C7.25242 2.98162 7.22781 3.00683 7.20953 3.03645C7.13303 3.1672 7.18353 3.3402 7.30003 3.4452ZM7.99553 3.0612C8.00037 3.15387 8.00328 3.24687 8.00428 3.3402C8.00328 3.49945 8.16453 3.5927 8.29178 3.55995C8.35853 3.54295 8.42028 3.49595 8.46253 3.43245C8.50978 3.3597 8.51778 3.28945 8.51778 3.20745C8.51778 3.1137 8.51428 3.02145 8.50903 2.9287C8.50813 2.89398 8.49946 2.85991 8.48366 2.82899C8.46785 2.79806 8.44533 2.77107 8.41773 2.74999C8.39013 2.72891 8.35816 2.71429 8.32416 2.70718C8.29017 2.70008 8.25501 2.70069 8.22128 2.70895C8.07553 2.74645 7.98703 2.9032 7.99553 3.0612ZM8.79753 3.1697C8.74437 3.2457 8.68903 3.32037 8.63153 3.3937C8.53103 3.51795 8.59903 3.6912 8.71953 3.74545C8.78228 3.7727 8.85978 3.7757 8.93278 3.75145C9.01578 3.72445 9.06428 3.67395 9.11653 3.6107C9.17428 3.53695 9.22903 3.4622 9.28328 3.38695C9.3039 3.35904 9.31807 3.3269 9.32479 3.29286C9.33151 3.25882 9.33061 3.22371 9.32215 3.19005C9.31369 3.1564 9.29788 3.12504 9.27586 3.09822C9.25384 3.0714 9.22615 3.0498 9.19478 3.03495C9.05628 2.97395 8.89003 3.0417 8.79753 3.1697ZM9.33003 3.70195C9.24253 3.7342 9.15653 3.76545 9.06678 3.7937C8.91528 3.84195 8.87478 4.0237 8.94428 4.13495C8.98053 4.19345 9.04328 4.23845 9.11653 4.2592C9.20053 4.2827 9.26928 4.26895 9.34878 4.2447C9.43728 4.21645 9.52453 4.1842 9.61203 4.15145C9.64473 4.13997 9.67447 4.12135 9.69907 4.09694C9.72367 4.07253 9.74252 4.04294 9.75425 4.01033C9.76598 3.97772 9.7703 3.9429 9.76689 3.90841C9.76348 3.87393 9.75243 3.84063 9.73453 3.81095C9.65428 3.68195 9.47903 3.6462 9.33003 3.70195ZM9.53003 4.4772C9.44206 4.44714 9.35494 4.41462 9.26878 4.3797C9.12103 4.3197 8.97353 4.43295 8.95603 4.5627C8.94741 4.63565 8.9663 4.7092 9.00903 4.76895C9.05828 4.84045 9.11953 4.8747 9.19603 4.90595C9.28228 4.9412 9.36953 4.97295 9.45703 5.0037C9.60703 5.05595 9.75303 4.9567 9.76978 4.8202C9.79078 4.6702 9.67928 4.5302 9.53003 4.4772ZM8.48903 5.45445C8.48393 5.36162 8.48118 5.26867 8.48078 5.1757C8.48078 5.01595 8.32028 4.9222 8.19253 4.95445C8.12218 4.97503 8.0618 5.02065 8.02278 5.0827C7.97478 5.15495 7.96653 5.22495 7.96653 5.3067C7.96578 5.40045 7.96978 5.4937 7.97453 5.58595C7.97558 5.62063 7.98432 5.65464 8.00012 5.68553C8.01593 5.71641 8.0384 5.74339 8.06592 5.76452C8.09344 5.78565 8.12531 5.8004 8.15923 5.80769C8.19315 5.81499 8.22826 5.81465 8.26203 5.8067C8.40928 5.7687 8.49578 5.6117 8.48903 5.45445ZM9.13628 5.20545C9.09012 5.12488 9.04611 5.0431 9.00428 4.9602C8.93278 4.81745 8.74603 4.8057 8.64778 4.8922C8.59362 4.94183 8.55955 5.00962 8.55203 5.0827C8.54203 5.1692 8.56653 5.23495 8.60353 5.3087C8.64578 5.3927 8.68928 5.4732 8.73528 5.5542C8.75194 5.58477 8.77519 5.61126 8.80333 5.63175C8.83148 5.65224 8.86383 5.66622 8.89804 5.67268C8.93225 5.67914 8.96747 5.67791 9.00115 5.6691C9.03483 5.66028 9.06613 5.64409 9.09278 5.6217C9.20578 5.5217 9.21353 5.3432 9.13628 5.20545Z" fill="white"/>
<path d="M8.34552 8.75502L7.67077 7.99752C7.67077 7.99752 7.46202 6.79477 8.54202 7.48902L8.85502 8.45677L8.34552 8.75402" fill="#DDE4E9"/>
<path d="M8.86853 8.4737L8.55078 7.5107C8.55078 7.5107 8.83828 6.32445 9.55328 7.39145L9.45478 8.4032L8.86978 8.4737" fill="#C8D2D9"/>
<path d="M9.12065 8.3642L9.5569 7.3837C9.5569 7.3837 10.6267 6.65795 10.4272 8.00245L9.63015 8.7267L9.12065 8.3642ZM9.19265 9.81745L9.13515 10.8297C9.13515 10.8297 8.4319 11.8272 8.1604 10.5735L8.62215 9.6677L9.19265 9.81745ZM9.62165 8.9302L10.5954 9.23695C10.5954 9.23695 11.3299 10.2395 10.0054 10.234L9.27665 9.5132L9.62165 8.9302Z" fill="#DDE4E9"/>
<path d="M8.62537 9.64551L8.16887 10.5513C8.16887 10.5513 7.12687 11.186 7.37687 9.92726L8.16187 9.28076L8.62537 9.64551Z" fill="#C8D2D9"/>
<path d="M8.32243 9.53249L7.37718 9.89624C7.37718 9.89624 6.17793 9.66574 7.20943 8.90149L8.22518 8.95124L8.32243 9.53249Z" fill="#DDE4E9"/>
<path d="M8.2224 9.13624L7.2369 8.89899C7.2369 8.89899 6.38165 8.02874 7.6639 7.98474L8.4719 8.60149L8.2224 9.13624ZM9.2949 8.69724L10.2929 8.08674C10.2929 8.08674 11.7014 8.09849 10.6907 9.18099L9.52715 9.33674L9.2949 8.69724Z" fill="#C8D2D9"/>
<path d="M8.84254 9.80153C9.27415 9.80153 9.62403 9.45164 9.62403 9.02003C9.62403 8.58842 9.27415 8.23853 8.84254 8.23853C8.41092 8.23853 8.06104 8.58842 8.06104 9.02003C8.06104 9.45164 8.41092 9.80153 8.84254 9.80153Z" fill="#F8AE1C"/>
<path d="M8.67082 9.17271C8.56667 9.05499 8.50052 8.90856 8.48102 8.7526C8.46153 8.59664 8.4896 8.43843 8.56157 8.29871C8.47031 8.33189 8.3861 8.38192 8.31332 8.44621C8.15822 8.58354 8.06391 8.77678 8.05107 8.98355C8.03823 9.19031 8.1079 9.39373 8.24482 9.54921C8.32908 9.64437 8.43529 9.71754 8.55424 9.76236C8.67318 9.80719 8.80127 9.82231 8.92738 9.80642C9.05349 9.79053 9.17382 9.74412 9.27793 9.67119C9.38205 9.59827 9.46679 9.50105 9.52482 9.38796C9.37735 9.44228 9.21692 9.4508 9.06453 9.41239C8.91215 9.37398 8.77491 9.29044 8.67082 9.17271Z" fill="#CA8A2A"/>
<path d="M9.4634 9.5625L10.0749 10.372C10.0749 10.372 10.1836 11.5872 9.16415 10.808L8.9314 9.81775L9.4634 9.5625Z" fill="#C8D2D9"/>
</svg>
